# xmcd CD database file
#
# Track frame offsets:
#	150
#	19678
#	43493
#	60298
#	81176
#	97791
#	117924
#	139979
#
# Disc length: 2220 seconds
#
# Revision: 0
# Processed by: cddbd v1.5.1PL0 Copyright (c) Steve Scherf et al.
# Submitted via: CDex 1.51
#
DISCID=6208aa08
DTITLE=Various Artist - とりあえず
DYEAR=2005
DGENRE=JPop
TTITLE0=くちばしにチェリー
TTITLE1=Our Song
TTITLE2=やつらの足音のバラード
TTITLE3=Boys&Girls
TTITLE4=サイコアナルシス
TTITLE5=天体観測
TTITLE6=LIFE
TTITLE7=Still Love Her
EXTD=YEAR: 2005
EXTT0=
EXTT1=
EXTT2=
EXTT3=
EXTT4=
EXTT5=
EXTT6=
EXTT7=
PLAYORDER=
